<?xml version="1.0" encoding="UTF-8"?>
<svg id="Layer_1" data-name="Layer 1" xmlns="http://www.w3.org/2000/svg" viewBox="0 0 1920 244">
  <path d="M1863.21,11.3l4.95,2.19c2.45.24,3.17-1.41,3.77-1.67,1.51-.64,7.68,1.01,10.37,1.25.78.07,1.01,1.75,1.97-.34l3.06,3.02.34,1.97c-1.67,2.71-4.45,3.62-7.46,3.83l-.34-1.97c-.49-.42-.99,1.12-1.31,1.24-3.4,1.31-5.63-.37-8.22-.61-2.25-.21-5.71.25-8.05.38-1.07.06-2.83-.08-2.29,1.41l3.38,1.95c.86,3.76,6.46,3.12,7.92,4.72,1.33,1.45,2.25,4.67,3.16,6.56.28.58,4,2.57,4.79,4.24.38.8.14,2.16.51,2.96.58,1.24,3.94,2.5,5.35,1.61.42.3.4,4.27.94,5.42.38.81,3.34,1.41,2.74,4.09l2.96-.51,1.02,5.91c3.09-.85,4.65,2.69,2.91,5.08l4.79,4.24-.3,4.11c4.89,2.49,5.47,6.39,6.07,11.63l1.97-.34c2.95,6.5,2.67,15.01,7.61,20.5l-.3,4.11,1.33,1.8c-2.12,5.08,2.06,9.58,4.36,13.45-1.39,1.53-.97,3.57-1.12,5.27-.19,2.1.45,3.8.21,7.07-.51,6.73.53,14.4-2.5,20.73l1.33,1.8-.22,4.6-2.96.51.51,2.96-2.96.51.51,2.96c-2.56.16-3.8,4.53-3.9,6.76l-4.76,1.84.34,1.97c-4.2.23-4.95,5.55-8.34,7.53-3.55-1.58-7.84-.11-9.51,3.68-2.17-2.38-5.98,1.28-6.9,1.19-6.38-.62-11.15,3.34-17.74,3.07-.37-.02-2.75-1.37-3.3-1.46-1.28-.21-3.72,0-5.1-.13-.42-.04-.83-.87-1.16-.81l-2.29,1.41.51,2.96-1.65-.73c-1.46,2.24-3.56,3.71-2.43,6.51-1.15.06-4.39,2.24-4.5,3.32-.11,1.02.86,2.06-.47,3.13l1.24,1.31c-3.33-.2-4.63,3.66-7.37,4.32l.51,2.96c-1.71-.13-2.91,2.03-4.09,2.74-1.85,1.1-2.75.81-3.94.68-.33-.04-2.54,1.27-2.79,1.5-1.65,1.5-1.47,6.4-5.06,5.95-.43-.05-.78-.81-1.16-.81-1.66,0-3.67.84-5.42.94l.34,1.97-3.62-.39c-1.64,3.82-6.13,2.49-9.51,3.68-1.03.36-1.56,1.05-3.94.68l-3.43,3.64c-2.84-3.59-5.94.32-7.07.21-3.01-.29-7.59-2.3-10.02.72l-3.3-1.46-2.79,1.5c-1.5-1.24-4.37-.68-6.25-.95-2.57-.37-4.78.44-6.9,1.19-2.6.92-4.48-.72-7.07.21l-9.65-5.94,1.2-4.78c3.53,1.63,6.46,1.14,10.19.26l.34,1.97c5.47-1.67,10.77-.37,15.78.31l1.63-2.31,5.1.13,1.99,2.7c.49.42.94-1.05,1.31-1.24,7.63-3.95,20.5-.06,27.08-7.73l4.28,1.29c3.58-2.74,8.13-4.35,10.8-7.96l2.14.64c6.17-4.63,12.08-10.16,15.76-17.44.12-.25-.29-.76-.17-.99,1.36-2.57,3.38-3.25,1.85-6.92-2.23.32-4.13-1.63-5.42.94-1.41-1.1-3.2-1.57-3.15-3.51-2.15.99-3.69-1.09-4.43.77-1.48-1.38-3.32.17-4.86-1.7-1.25-1.52-4.14-3.36-5.85-1.53-2.78-1.56-6.01-1.26-8.57-2.58-2.21-1.14-3.26-3.6-4.79-4.24-5.37-2.25-12.76-3.85-15.26-9.03-.21-.44-7.31-4.24-8.65-3.07.95-3.47-3.66-5.65-4.24-6.88-.68-1.46-.37-1.88-1.67-3.77-1.2-1.76-4.78-6.46-5.48-8.19-1.75-4.32-2.34-9.91-2.39-13.79-2.6-2.21-.98-7.08-.72-10.02s-1.04-6.72-.72-10.02c.08-.83,3.08-4.09,2.02-5.93l1.97-.34-1.24-1.31,2.85-4.05,1.65.73c-.33-.92-.02-4.88.13-5.1s1.06.08,1.48-.26c.61-.5,1.15-2.08,1.63-2.31,1.4-.68,2.71-.3,3.6-2.65l3.13.47,3.11-2.57.34,1.97,3.77-1.67.34,1.97,3.94-.68.34,1.97c.79-.22,1.77-.15,2.46-.43.37-.15.49-1.1.81-1.16.19-.03,1.97,1.45,3.62.39l.51,2.96,2.96-.51.34,1.97,9.55,2.41.43,2.46,1.73,1.22,2.46-.43,1.84,4.76,2.46-.43c1.43.17,2.91,4.08,3.49,5.49l1.97-.34-.47,3.13,4.11.3c.2.15-.06.98.26,1.48,1.93,3.04,6.89,7.12,4.83,10.33,4.58,5.79,10.64,13.75,9.66,20.65,2.32,1.5,4.32,4.15,5.22,6.71l-1.97.34,1.24,1.31-.81,1.16,2.48,2.61-.81,1.16c.06.32.97.43,1.16.81.85,1.76-.22,2.91-1.29,4.28l1.5,2.79c-2,3.1-.35,6.8-.26,10.19,0,.3-1.45,1.96-.39,3.62,2.06-.29,4.23.62,5.93,2.02l1.14-2.23,1.24,1.31.41-.58c5.03,1.19,11.15-.73,16.28.23,5.45-4.42,14.13-3.47,18.51-10.31l2.14.64,4.91-3.89c-.78-3.91,1.06-8.23,5.7-8.09l-1.24-1.31.81-1.16-1.16-.81,4.07-5.78c-2.86-2.37-1.15-7.71,1.25-10.37l-1.67-3.77c3.01-2.7-.43-5.87,2.58-8.57l-1.33-1.8.81-1.16c-2.24-2.29-3.87-6.89-3.85-10.5.03-5.23-2.68-10.64-1.74-15.94l-2.31-1.63.47-3.13-3.81-4.42c.04-.41.79-.76.81-1.16.17-3.1-1.98-3.83-2.99-5.57-2.75-4.73-2.35-11.31-8.64-14.74l.47-3.13c-2.31-1.38-3.1-4.8-4.15-6.39-1.74-2.64-6.75-4.11-4.32-7.37-1.51-.95-2.56-2.49-4.37-1.78.21-2.36-2.27-3.11-.77-4.43-2.2-1.36-3.46-2.31-4.79-4.24-.55-.79-1.89-.37-.34-1.97l-5.61-3.09.81-1.16c-.63-.61-1.83-1.04-2.31-1.63-1.56-1.92-4.88-6.6-6.87-7.44-.92-.39-3.25-.18-4.28-1.29l-3.19,2.08,2.06.15c.06,1.71,1.02,3.85.94,5.42-.17,3.53,1.36,9.09,1.4,13.97,0,.39-.86.81-.81,1.16.02.17,1.7.74,1.41,2.29l-3.79-1.37-.81,1.16-3.06-3.02.64-2.14-4.15-6.39c1.7-2.57,1.44-6.34.44-9.21-.22-.63-2.02-.38-.34-1.97-2.99-1.87-2.46-4.88-3.34-7.54-.12-.36-1.91-1.31-1.67-3.77l4.14-8.33c2.4,2.68,5.18.07,7.58,2.75l.81-1.16,2.31,1.63c.33-.06.45-1.03.81-1.16,2.13-.76,4.33-.2,6.25.95l.97-3.21ZM1795.89,103.13c-3.59,1.33-5.69.06-8.89-1.51-1.17,2.31-4.69,1.22-6.73,2.18-.29.14-3.63,4.89-3.67,5.2-.56,5.12-1.65,2.95-2.36,3.96-.2.29-.12,4.87-2.02,5.93,2.9,2.39-1.3,8.92.08,12.17s1.51,4.87,1.54,8.87c0,.39-.87.83-.81,1.16s.98.43,1.16.81c.44.96-.11,2.22,1.5,2.79l-.81,1.16c5.12,1.83,3.16,6.15,4.66,9.34.94,2.01,8.77,3.74,7.53,8.34l1.97-.34.34,1.97c1.81-.7,2.86.83,4.37,1.78l-.73,1.65,5.59.05c3.01,3.08,2.78,3.47,6.76,3.9,1.23.13,1.53,2.92,4.62,3.26.68.08,1.65-.4,2.46-.43l1.67,3.77,5.91-1.02.34,1.97,3.45-.6c3.2,3.81,2.83,2.69,6.59,2.92,3.26.19,6.99,2.69,7.58,2.75,1.09.11,2.7-.68,3.94-.68.4,0,1.15,1.38,2.63.56l-.98-11.5,2.7-1.99-.34-1.97-1.97.34.05-5.59c-3.2-1.42-2.46-3.59-2.18-6.73.04-.42.87-.83.81-1.16l-2.48-2.61.22-4.6-3.21-.97.64-2.14c-2.35-.89-1.98-2.2-2.65-3.6-.4-.82-2.97-1.12-2.57-3.11l1.89-.83-3.47-2.44c-1.15-6.43-6.01-9.29-8.64-14.74-.26-.53-5.13-2.07-6.94-4.89-1.6-2.5-4.94-1.44-5.05-5.72l-1.97.34c-.64-2.03-6.11-5.52-7.6-5.79-.75-.13-4.26.02-4.6-.22l-.34-1.97Z"/>
  <path d="M-.21,170.94l1.79-.89c-2.42-3.43-.16-6.77.28-10.73.25-2.27,1.9-2.68,3.82-3.56l-1.11-2.24.68-2.01,2.24-1.11c-2.18-4.81,5.5-12.24,5.67-15.62.09-1.8-.8-.5,1.13-3.35s3.92-5.08,6.3-7.57c2.2-2.3,5.88-7,4.52-10.04.45-.15.88-.63,1.34-.66.58-.05,3.59-.48,4.03-.87,1.65-1.47,4.41-4.19,5.85-6.23.92-1.3.31-3.31,3.15-3.79-1.47-1.26-.58-3.4-.65-3.58-.07-.17-2.37-.78-2.45-2.7l2.69-1.33-1.56-.9c.94-1.19-.28-4.68-.2-4.92s1.04-.22,1.34-.66c1.43-2.08,4.99-12.18,4.55-14.51l1.79-.89c-.96-2.63.68-7.62,3.62-8.48l-.89-1.79h2.24c-1.56-2.68.57-3.92,3.16-4.89l-.87-4.03,4.93-1.32-.89-1.79,3.59-2.89,1.79.23.02-3.35,5.83-2.88.02-3.35,1.34.45,1.35-1.78,4.03-.87c.33-2.27,1-.74,1.79-.89,2.5-.45,2.81-4.9,4.51-6.69l1.79-.89,4.91.92c2.86-5.34,10.65-2.8,13.89-5.74.45-.41,9.84-3.63,11.19-2.18l1.35-1.78,12.07.73c-2.94-1.09-.97-3.36-2.43-4.93l-3.12-1.8.45-1.34c-2.51-.15-2.56-1.66-3.56-2.7-.3-.31-1.09-.15-1.34-.45-1.53-1.86-.72-3.61-1.54-5.37l4.04-3.11.89,1.79,2.69-1.33,2,1.8v2.24c2.18,2.46,5.98,5.25,6.21,8.08,4.79,1.43,5.87,6.26,9.8,8.55,3.1,1.8,8.95,2.28,12.05,4.09,1.08.63,2.87,2.82,4.01,3.6.63.43,1.9.5,2.68.91l.21,2.68-2.7,2.45c-.17.07-3-.51-3.58-.47-2.89.23-3.79,1.86-4.48,2.21-1.31.66-4.87-1.11-8.96,2.19-2.34,1.89-6.06,1.88-6.72,2.2-.44.22-5.35,4.46-7.18,5.78-.54.39.21,2.05-1.79.89l-1.35,1.78-5.58-1.15c1.09-2.55-2.32-4.15-.64-6.94.16-.27,1.41-.56,1.35-1.78l1.79-.89c.42-.07.96.54,1.34.45,4.79-1.13,7.11-4.21,10.76-5.31,1.61-.49,3.28-1.83,4.93-2.43-.64-1.93-2.58-2.43-4.02-1.36l-1.33-2.69c-4.74,1.35-8.08-2.24-12.98,1.95l-2.67-2.03-1.8,2-1.33-1.57c-2.3.46-2.35,3.06-4.03,1.99l-.45,1.34-3.58.65-.89-1.79c-.4.27-1.04.32-1.34.66-1.63,1.82-.72.57-1.79.89-2.6.77-3.27,3.26-4.94,3.55-3.97-.98-9.96,2.12-13.44,4.4-.81.53-3.56,3.68-4.49,4.45-3.8,3.14-6.12,5.42-10.33,8.45-.5.36,0,1.47-2.69,1.33-.49,1.72-1.66,3.16-.47,4.69-3.36.8-4.12,2.98-5.84,5.11-1.83,2.27-4.66,4.56-2.28,7.81-2,.35-1.49,2.19-2.25,3.34-1.64,2.49-4.9,4.46-2.28,7.81l-2.69,1.33c.31,3.25-.68,7.77-1.17,11.17-.16,1.08-1.43,2.53-.47,3.58,1.03,1.13,3.63.24,4.7-.65,3.11-2.59,6.55-2.81,10.76-5.31l4.91.92,2.7-2.45,2.67,2.03c.65-2.23,3.97-3.68,6.05-2.43,1.14.69,4.57,2.32,6.03,2.04.94-.18,2.09-1.21,3.14-1.55l2.21,4.48,1.8-2,3.35,1.13.21,2.68c3.72-3.1,6.05,2.69,9.39.94,3.02,5.17,8.36,10.11,14.02,12.59v2.24c5,2.99,4.6,9.56,9.32,12.12l.42,5.37,1.34.45c.24,6.76-1.74,14.29.12,20.57-2.85,1.62-1.54,5.45-5.85,6.23l-.02,3.35c-.5.45-1.41.45-1.79.89-2.19,2.49-1.06,2.03-1.13,3.35-.22,3.69-3.57,2.32-3.81,2.44-.29.14-.13,1.05-.45,1.34-1.1,1-5.29.74-5.83,4-1.58-1.11-2.66.61-4.03.87-.56.11-2.12-1.02-2.68-.91-.87.17-1.83,1.16-2.69,1.33-2.77.53-6.24-1.94-8.93-2.28-1.44-.18-5.13.78-6.48-.7-2.59-2.85-3.02-1.87-6.24-3.61-1.86-1-12.79-6.12-13.38-6.78-2.45-2.76-3.8-8.14-8.9-8.99l-.43-3.13-4.9-3.16c-.08-.41.54-.95.45-1.34-.51-2.14-4.86-5.54-6.67-6.74l1.57-1.33c-.78-1.21-1.18-2.95-1.99-4.03-.23-.31-2.8-2.33-3.56-2.7,1.6-2.41-.91-7.71-2.63-9.85-.49-.61-2.31-.07-1.55-3.14-1.2.5-1.79,1.54-2.7,2.45-3.57,3.56-8.12,7.64-10.79,12.02-.92,1.5,0,4.1-.92,4.91-2.76,2.45-5.84,4.26-6.08,9.14-.09,1.78-1.14,4.4-2.94,6.47-1.57,1.81-1.29,4.11-1.6,6.92-.2,1.84-1.24,2.51-2.92,3.12-.08.22.6.75.66,1.34.1.9-1.36,1.44.89,1.79l-.93,7.15,2.22,2.25-.45,1.34,1.78,1.35-2.04,6.03-1.33-1.57-.9,1.56-2.68.21-6.44-8.53-.65-3.58ZM90.03,100.73c-.14-.05-1.27.29-2.68.21-3.41-.19-5.75-1.03-9.39-.94s-7.85-2.78-11.18-.06c-.31.25-.14,1.06-.45,1.34-3.86-.52-6.47,1-10.29,1.74-1.02.2-2.67,4.28-5.38,2.66l-1.79.89-2.05,8.26c.28.31,1.09.15,1.34.45,2.43,3.02,1.6,8.92,2.62,12.09.83,2.56,3.6,5.12,2.64,7.62l4.02,1.36c-.42,3.45,3.04,4.78,4.44,6.73.89,1.24,1.33,3.49,2.21,4.48.6.68,3.79.53,4.01,3.6l4.91.92c1.59,7.26,9.02,5.57,12.02,10.79,5.05.85,9.95.51,13.85,3.2.45.31.41,1.26.66,1.34,1.28-1.49,3.41-.57,3.58-.65.24-.12,1.34-2.34,4.04-3.11.36-.1.92.52,1.34.45,2.01-.33,2.02-2.06,2.25-2.22,1.24-.91,3.33-1.3,4.48-2.21.26-.21,1.4-2.49,1.8-3.12.16-.25.76-.21.9-.44,1.78-2.94.27-8.6,2.75-12.51.41-.65,1.86-2.05,2.7-2.45-1.49-1.29-.56-3.3-.65-3.58-1.42-4.4-4.42-9.52-5.74-13.89-.11-.37.6-1.04.45-1.34s-1.11-.14-1.34-.45c-.9-1.23-.78-2.98-2.67-3.14l.23-1.79-3.35-.02.45-1.34-1.78-1.35c1.24-2.48-.54-2.01-1.33-2.69-.44-.38-.43-1.27-.66-1.34-.25-.09-.81.69-1.34.66-2.32-.13-8.74-6.18-10.92-7.43-1.08-.63-3.1-.73-4.02-1.36-.45-.31-.41-1.26-.66-1.34Z"/>
</svg>